<svg width="12" height="13" viewBox="0 0 12 13" fill="none" xmlns="http://www.w3.org/2000/svg">
<path opacity="0.258" d="M7.49938 7.37865H4.50062C3.90982 7.3785 3.32466 7.4884 2.77877 7.70181C2.23288 7.91521 1.73653 8.22793 1.31865 8.62241C0.900776 9.01689 0.569618 9.48547 0.343373 10.001C0.117129 10.5165 0.000167579 11.0687 0 11.6267V12.3031C-1.45145e-07 12.3947 0.0195575 12.4857 0.0567096 12.5703C0.0938617 12.6549 0.148232 12.7316 0.216867 12.7963C0.285503 12.861 0.366522 12.9127 0.456169 12.9476C0.545817 12.9826 0.642112 13.0002 0.739094 13H11.2609C11.3579 13.0003 11.4541 12.9825 11.5438 12.9476C11.6336 12.9127 11.7151 12.8617 11.7838 12.7969C11.8524 12.7322 11.9068 12.655 11.9439 12.5703C11.981 12.4856 12.0002 12.3947 12 12.3031V11.6267C12 11.0687 11.8834 10.5165 11.6572 10.001C11.4311 9.4854 11.0993 9.01692 10.6813 8.62241C10.2634 8.2279 9.76782 7.91457 9.22185 7.70122C8.67588 7.48787 8.09022 7.37834 7.49938 7.37865ZM5.99875 6.73647C6.70403 6.7367 7.3933 6.53893 7.97985 6.16903C8.5664 5.79913 9.02401 5.2734 9.29414 4.65804C9.56427 4.04268 9.63527 3.36546 9.49792 2.71206C9.36058 2.05865 9.02117 1.45861 8.52264 0.987393C8.02412 0.516179 7.38839 0.195217 6.69672 0.0650221C6.00505 -0.0651731 5.28816 0.00102775 4.63648 0.255736C3.98479 0.510444 3.42756 0.942204 3.03552 1.49596C2.64348 2.04972 2.4344 2.70103 2.43415 3.36719C2.4355 4.26011 2.81113 5.11586 3.47923 5.74758C4.14733 6.37931 5.05341 6.73424 5.99875 6.73647Z" fill="white"/>
</svg>
