<svg width="18" height="18" viewBox="0 0 18 18" fill="none" xmlns="http://www.w3.org/2000/svg">
<mask id="mask0_54_3932" style="mask-type:luminance" maskUnits="userSpaceOnUse" x="0" y="0" width="18" height="18">
<path d="M18 0H0V17.9967H18V0Z" fill="white"/>
</mask>
<g mask="url(#mask0_54_3932)">
<path d="M9.4165 5.41992V9.41386H12.7503" stroke="#666666" stroke-linecap="round" stroke-linejoin="round"/>
<path d="M9.41667 15.831C8.14757 15.831 6.90698 15.4547 5.85176 14.7498C4.79655 14.0449 3.9741 13.0429 3.48844 11.8706C3.00278 10.6983 2.87571 9.40839 3.1233 8.1639C3.37089 6.91942 3.98202 5.77629 4.8794 4.87906C5.77679 3.98184 6.92013 3.37082 8.16484 3.12328C9.40955 2.87573 10.6997 3.00277 11.8722 3.48835C13.0447 3.97392 14.0469 4.79622 14.7519 5.85125C15.457 6.90627 15.8333 8.14664 15.8333 9.4155C15.8315 11.1164 15.1549 12.7472 13.9519 13.9499C12.7489 15.1526 11.1179 15.8292 9.41667 15.831Z" stroke="#666666" stroke-linecap="round" stroke-linejoin="round"/>
</g>
</svg>
