<svg width="22" height="22" viewBox="0 0 22 22" fill="none" xmlns="http://www.w3.org/2000/svg">
<mask id="mask0_783_42246" style="mask-type:alpha" maskUnits="userSpaceOnUse" x="0" y="0" width="22" height="22">
<rect x="0.5" y="0.5" width="21" height="21" fill="#D9D9D9" stroke="#CCD5DD"/>
</mask>
<g mask="url(#mask0_783_42246)">
<path d="M17.1583 10.925C17.1564 10.4352 17.0954 9.94745 16.9765 9.47233L18.824 8.12606L17.373 5.61239L15.2837 6.53958C14.5749 5.85795 13.7111 5.35875 12.7666 5.08492L12.5262 2.81348H9.62384L9.38254 5.08492C8.43807 5.35875 7.57425 5.85795 6.86542 6.53958L4.77639 5.61239L3.3252 8.12606L5.1727 9.47233C4.93028 10.4256 4.93028 11.4244 5.1727 12.3776L3.3252 13.7239L4.77639 16.2373L6.86542 15.3101C7.57418 15.9919 8.43801 16.4912 9.38254 16.765L9.62384 19.0365H12.5262L12.7675 16.765C13.7121 16.4912 14.5759 15.9919 15.2846 15.3101L17.3739 16.2373L18.8249 13.7239L16.9774 12.3776C17.096 11.9025 17.1567 11.4147 17.1583 10.925ZM11.075 13.7879C10.5088 13.7879 9.95536 13.62 9.48458 13.3054C9.01381 12.9908 8.64689 12.5437 8.43021 12.0206C8.21354 11.4974 8.15685 10.9218 8.26731 10.3665C8.37777 9.81111 8.65041 9.30098 9.05078 8.90059C9.45114 8.50021 9.96122 8.22753 10.5165 8.11706C11.0719 8.0066 11.6475 8.06331 12.1706 8.28C12.6937 8.49669 13.1407 8.86362 13.4553 9.33442C13.7699 9.80523 13.9378 10.3587 13.9378 10.925C13.9378 11.6843 13.6362 12.4125 13.0993 12.9494C12.5624 13.4863 11.8343 13.7879 11.075 13.7879Z" stroke="white" stroke-width="1.2" stroke-linecap="round" stroke-linejoin="round"/>
</g>
</svg>
