<svg width="22" height="22" viewBox="0 0 22 22" fill="none" xmlns="http://www.w3.org/2000/svg">
<mask id="mask0_0_64" style="mask-type:alpha" maskUnits="userSpaceOnUse" x="0" y="0" width="22" height="22">
<rect width="22" height="22" fill="#D9D9D9"/>
</mask>
<g mask="url(#mask0_0_64)">
<path d="M17.957 11.0002C17.9548 10.3929 17.8799 9.78803 17.7342 9.19886L19.9989 7.52938L18.2203 4.41226L15.6592 5.56203C14.7903 4.71677 13.7314 4.09773 12.5736 3.75815L12.2789 0.941406H8.72108L8.42529 3.75815C7.26752 4.09773 6.20863 4.71677 5.33972 5.56203L2.77892 4.41226L1 7.52938L3.26473 9.19886C2.96756 10.381 2.96756 11.6195 3.26473 12.8016L1 14.4711L2.77892 17.5879L5.33972 16.4381C6.20854 17.2836 7.26746 17.9027 8.42529 18.2423L8.72108 21.0591H12.2789L12.5747 18.2423C13.7325 17.9027 14.7915 17.2836 15.6603 16.4381L18.2214 17.5879L20 14.4711L17.7353 12.8016C17.8806 12.2124 17.9551 11.6075 17.957 11.0002ZM10.5 14.5504C9.80594 14.5504 9.12746 14.3422 8.55037 13.9521C7.97328 13.562 7.5235 13.0076 7.25789 12.3588C6.99229 11.7101 6.9228 10.9963 7.0582 10.3076C7.1936 9.61896 7.52783 8.98636 8.0186 8.48985C8.50937 7.99335 9.13466 7.65521 9.81538 7.51822C10.4961 7.38124 11.2017 7.45157 11.8429 7.72028C12.4842 7.98899 13.0322 8.44401 13.4178 9.02784C13.8034 9.61167 14.0092 10.2981 14.0092 11.0002C14.0092 11.9418 13.6395 12.8448 12.9814 13.5106C12.3233 14.1764 11.4307 14.5504 10.5 14.5504Z" fill="#3B4994" stroke="white" stroke-linecap="round" stroke-linejoin="round"/>
</g>
</svg>
