<svg width="15" height="15" viewBox="0 0 15 15" fill="none" xmlns="http://www.w3.org/2000/svg">
<mask id="mask0_381_135" style="mask-type:luminance" maskUnits="userSpaceOnUse" x="0" y="0" width="16" height="15">
<path d="M15.0027 0H0V15H15.0027V0Z" fill="white"/>
</mask>
<g mask="url(#mask0_381_135)">
<path d="M0 1.50098H2.00062" stroke="white" stroke-width="1.5" stroke-linecap="round"/>
<path d="M3.50047 3.00039C4.32915 3.00039 5.00093 2.32873 5.00093 1.50019C5.00093 0.67166 4.32915 0 3.50047 0C2.67178 0 2 0.67166 2 1.50019C2 2.32873 2.67178 3.00039 3.50047 3.00039Z" fill="#03167B" stroke="white" stroke-width="1.5"/>
<path d="M3.50084 2.62529C4.12235 2.62529 4.62619 2.12155 4.62619 1.50015C4.62619 0.878745 4.12235 0.375 3.50084 0.375C2.87932 0.375 2.37549 0.878745 2.37549 1.50015C2.37549 2.12155 2.87932 2.62529 3.50084 2.62529Z" fill="#03167B" stroke="white" stroke-width="1.5"/>
<path d="M5.00098 1.50098H11.0028" stroke="white" stroke-width="1.5" stroke-linecap="round"/>
<path d="M11.0031 6H9.00244" stroke="white" stroke-width="1.5" stroke-linecap="round"/>
<path d="M7.50193 7.50137C8.33062 7.50137 9.0024 6.82971 9.0024 6.00117C9.0024 5.17264 8.33062 4.50098 7.50193 4.50098C6.67325 4.50098 6.00146 5.17264 6.00146 6.00117C6.00146 6.82971 6.67325 7.50137 7.50193 7.50137Z" fill="#03167B" stroke="white" stroke-width="1.5"/>
<path d="M7.50182 7.12627C8.12333 7.12627 8.62717 6.62252 8.62717 6.00112C8.62717 5.37972 8.12333 4.87598 7.50182 4.87598C6.8803 4.87598 6.37646 5.37972 6.37646 6.00112C6.37646 6.62252 6.8803 7.12627 7.50182 7.12627Z" fill="#03167B" stroke="white" stroke-width="1.5"/>
<path d="M6.00187 6H0" stroke="white" stroke-width="1.5" stroke-linecap="round"/>
<path d="M0 10.502H2.00062" stroke="white" stroke-width="1.5" stroke-linecap="round"/>
<path d="M3.50096 12.0023C4.32964 12.0023 5.00142 11.3307 5.00142 10.5021C5.00142 9.67361 4.32964 9.00195 3.50096 9.00195C2.67227 9.00195 2.00049 9.67361 2.00049 10.5021C2.00049 11.3307 2.67227 12.0023 3.50096 12.0023Z" fill="#03167B" stroke="white" stroke-width="1.5"/>
<path d="M3.50084 11.6272C4.12235 11.6272 4.62619 11.1235 4.62619 10.5021C4.62619 9.8807 4.12235 9.37695 3.50084 9.37695C2.87932 9.37695 2.37549 9.8807 2.37549 10.5021C2.37549 11.1235 2.87932 11.6272 3.50084 11.6272Z" fill="#03167B" stroke="white" stroke-width="1.5"/>
<path d="M5.00098 10.502H11.0028" stroke="white" stroke-width="1.5" stroke-linecap="round"/>
</g>
</svg>
