<svg width="16" height="16" viewBox="0 0 16 16" fill="none" xmlns="http://www.w3.org/2000/svg">
<mask id="mask0_262_22" style="mask-type:alpha" maskUnits="userSpaceOnUse" x="0" y="0" width="16" height="16">
<rect width="16" height="16" fill="#D9D9D9"/>
</mask>
<g mask="url(#mask0_262_22)">
<path d="M6.6875 1.75C9.40876 1.75 11.626 3.97613 11.626 6.73535C11.626 9.4946 9.40877 11.7207 6.6875 11.7207C3.96642 11.7205 1.75 9.49445 1.75 6.73535C1.75002 3.97627 3.96643 1.75023 6.6875 1.75Z" stroke="white" stroke-width="1.5"/>
<path d="M13.4717 15.4593C13.7634 15.7534 14.2363 15.7534 14.5279 15.4593C14.8196 15.1652 14.8196 14.6884 14.5279 14.3943L13.9998 14.9268L13.4717 15.4593ZM9.93701 10.8301L9.40889 11.3626L13.4717 15.4593L13.9998 14.9268L14.5279 14.3943L10.4651 10.2975L9.93701 10.8301Z" fill="white"/>
</g>
</svg>
