<svg width="18" height="18" viewBox="0 0 18 18" fill="none" xmlns="http://www.w3.org/2000/svg">
<mask id="mask0_632_32697" style="mask-type:luminance" maskUnits="userSpaceOnUse" x="0" y="0" width="18" height="18">
<path d="M16.4697 0.75V16.4668H0.75V0.75H16.4697Z" fill="white" stroke="white" stroke-width="1.5"/>
</mask>
<g mask="url(#mask0_632_32697)">
<path d="M13.2007 5.93101L7.26204 11.8686C6.93511 12.1952 6.4919 12.3786 6.02977 12.3786C5.56763 12.3786 5.12438 12.1952 4.79745 11.8686C4.47064 11.5418 4.28705 11.0987 4.28705 10.6366C4.28705 10.1745 4.47064 9.73128 4.79745 9.40451L10.8646 3.33846C11.1781 3.0249 11.5504 2.77617 11.9601 2.60647C12.3698 2.43677 12.8089 2.34946 13.2524 2.34946C13.6958 2.34946 14.135 2.43677 14.5447 2.60647C14.9544 2.77617 15.3266 3.0249 15.6402 3.33846C15.9538 3.65195 16.2026 4.02414 16.3723 4.43377C16.542 4.8434 16.6294 5.28245 16.6294 5.72584C16.6294 6.16923 16.542 6.60828 16.3723 7.01792C16.2026 7.42755 15.9538 7.79973 15.6402 8.11322L9.14475 14.6083C8.67944 15.0735 8.12702 15.4425 7.51905 15.6943C6.91109 15.9461 6.25945 16.0757 5.60139 16.0757C4.94333 16.0757 4.29174 15.9461 3.68377 15.6943C3.0758 15.4425 2.52339 15.0735 2.05807 14.6083C1.59275 14.143 1.22364 13.5907 0.971806 12.9828C0.719973 12.375 0.590332 11.7235 0.590332 11.0655C0.590332 10.4076 0.719973 9.75614 0.971806 9.14828C1.22364 8.54043 1.59275 7.98806 2.05807 7.52284L8.42581 1.15625" stroke="#999999" stroke-width="1.5" stroke-linecap="round" stroke-linejoin="round"/>
</g>
</svg>
