<svg width="18" height="18" viewBox="0 0 18 18" fill="none" xmlns="http://www.w3.org/2000/svg">
<g opacity="0.8">
<path d="M6.16098 17.282H2.45398C2.21055 17.2821 1.96949 17.2343 1.74456 17.1412C1.51962 17.0482 1.31523 16.9117 1.14306 16.7396C0.970888 16.5675 0.834307 16.3632 0.741123 16.1383C0.647938 15.9135 0.599976 15.6724 0.599976 15.429V2.454C0.599844 2.21049 0.64771 1.96935 0.740835 1.74435C0.833961 1.51935 0.970521 1.31492 1.14271 1.14273C1.31489 0.970546 1.51933 0.833986 1.74433 0.74086C1.96932 0.647735 2.21047 0.599869 2.45398 0.600001H6.16098" stroke="white" stroke-width="1.2" stroke-linecap="round" stroke-linejoin="round"/>
<path d="M12.6479 13.575L17.2819 8.941L12.6479 4.307" stroke="white" stroke-width="1.2" stroke-linecap="round" stroke-linejoin="round"/>
<path d="M17.2815 8.81497H6.32751" stroke="white" stroke-width="1.2" stroke-linecap="round" stroke-linejoin="round"/>
</g>
</svg>
