<svg width="338" height="57" viewBox="0 0 338 57" fill="none" xmlns="http://www.w3.org/2000/svg">
<path d="M338 28.8133V31.7654H310.275V28.8133H322.22V26.029H312.933V23.0098H316.937V17.8102H312.765V14.8246H335.443V17.8102H331.271V23.0098H335.275V26.029H325.954V28.8133H338ZM334.635 34.1471V43.8755H313.539V34.1471H334.635ZM317.24 37.0656V40.8564H331.002V37.0656H317.24ZM320.672 23.0098H327.502V17.8102H320.672V23.0098Z" fill="#575757"/>
<path d="M306.506 13.955V34.4181H302.939V24.522H299.777V31.8686H296.277V14.5252H299.777V21.5028H302.939V13.955H306.506ZM293.316 16.1355V25.0923H285.409V28.6146C288.942 28.5643 291.634 28.363 294.73 27.7759L295.066 30.6945C291.432 31.4325 288.37 31.5331 283.861 31.5331H281.775V22.375H289.716V19.1546H281.742V16.1355H293.316ZM297.96 33.6801C297.96 37.1353 301.829 40.3893 307.987 41.1944L306.472 44.0793C301.711 43.3917 297.96 41.2447 296.109 38.2423C294.208 41.2447 290.456 43.3917 285.712 44.0793L284.198 41.1944C290.322 40.3893 294.191 37.1353 294.225 33.6801V33.0427H297.96V33.6801Z" fill="#575757"/>
<path d="M275.884 14.7914V17.6093H271.712V22.2051H275.716V25.0229H253.374V22.2051H257.378V17.6093H253.206V14.7914H275.884ZM278.441 26.9351V29.8871H250.716V26.9351H278.441ZM274.975 31.9334V39.1458H257.681V41.1922H275.817V43.9765H254.013V36.5628H271.308V34.6507H253.98V31.9334H274.975ZM261.113 22.2051H267.943V17.6093H261.113V22.2051Z" fill="#575757"/>
<path d="M244.928 13.9206V21.4014H249.167V24.4876H244.928V31.633H241.193V13.9206H244.928ZM228.979 32.8406V35.4572H241.193V32.8406H244.928V43.8773H225.278V32.8406H228.979ZM228.979 40.9252H241.193V38.3422H228.979V40.9252ZM239.006 16.7385V19.7241H220.971V16.7385H228.138V13.6858H231.872V16.7385H239.006ZM229.988 20.764C234.396 20.764 237.391 22.8774 237.424 26.0978C237.391 29.3183 234.396 31.4317 229.988 31.4317C225.547 31.4317 222.518 29.3183 222.518 26.0978C222.518 22.8774 225.547 20.764 229.988 20.764ZM229.988 23.5148C227.666 23.5148 226.152 24.4876 226.152 26.0978C226.152 27.7416 227.666 28.6809 229.988 28.6809C232.31 28.6809 233.858 27.7416 233.858 26.0978C233.858 24.4876 232.31 23.5148 229.988 23.5148Z" fill="#575757"/>
<path d="M218.887 29.6867V32.6387H191.094V29.6867H203.106V27.4391H194.661V14.7251H215.556V17.6101H198.396V19.6899H214.816V22.4407H198.396V24.5876H215.791V27.4391H206.841V29.6867H218.887ZM204.991 34.316C211.686 34.316 215.488 36.094 215.522 39.2473C215.488 42.5013 211.686 44.2121 204.991 44.2121C198.194 44.2121 194.392 42.5013 194.392 39.2473C194.392 36.094 198.194 34.316 204.991 34.316ZM204.991 37.1003C200.415 37.1003 198.127 37.8048 198.127 39.2473C198.127 40.7233 200.415 41.4278 204.991 41.4278C209.499 41.4278 211.754 40.7233 211.787 39.2473C211.754 37.8048 209.499 37.1003 204.991 37.1003Z" fill="#575757"/>
<path d="M169.828 15.2636C173.765 15.2301 176.861 17.4944 177.634 20.8322H183.119V13.9218H186.854V30.1916H183.119V23.8514H177.668C176.911 27.2563 173.782 29.5542 169.828 29.5542C165.151 29.5542 161.787 26.5686 161.787 22.3754C161.787 18.2492 165.151 15.2301 169.828 15.2636ZM169.828 18.3834C167.204 18.3834 165.353 19.9265 165.353 22.3754C165.353 24.7907 167.204 26.4009 169.828 26.4009C172.385 26.4009 174.202 24.7907 174.236 22.3754C174.202 19.9265 172.385 18.3834 169.828 18.3834ZM170.501 31.6005V34.821H183.119V31.6005H186.854V43.8784H166.8V31.6005H170.501ZM170.501 40.8593H183.119V37.7059H170.501V40.8593Z" fill="#575757"/>
<path d="M157.017 13.9218V44.2474H153.248V13.9218H157.017ZM147.932 17.1422C147.932 26.1661 144.433 33.8481 133.766 38.88L131.815 35.8944C139.773 32.1205 143.474 26.988 144.13 20.0942H133.363V17.1422H147.932Z" fill="#575757"/>
<path d="M129.626 37.4707V40.4898H101.833V37.4707H113.744V30.4595H117.445V37.4707H129.626ZM117.546 17.9804C117.546 22.5762 122.156 27.1049 128.549 28.1113L126.934 31.1976C121.786 30.2247 117.58 27.2894 115.561 23.3142C113.542 27.2727 109.37 30.2583 104.256 31.1976L102.641 28.1113C109 27.1049 113.542 22.5427 113.576 17.9804V15.7664H117.546V17.9804Z" fill="#575757"/>
<path d="M99.7834 27.8449V30.8641H87.7377V33.38C93.1885 33.749 96.385 35.6276 96.4187 38.781C96.385 42.2697 92.4483 44.2154 85.8871 44.2154C79.2586 44.2154 75.2882 42.2697 75.2882 38.781C75.2882 35.6276 78.5184 33.7323 84.0365 33.38V30.8641H72.0581V27.8449H99.7834ZM85.8871 36.1979C81.4457 36.2314 79.0567 37.1036 79.0904 38.781C79.0567 40.4583 81.4457 41.364 85.8871 41.364C90.2276 41.364 92.6502 40.4583 92.6838 38.781C92.6502 37.1036 90.2276 36.2314 85.8871 36.1979ZM97.2935 15.2651V18.2507H88.5452C89.1341 20.7499 92.768 22.9975 98.4712 23.5175L97.1589 26.4695C91.6408 25.916 87.5358 23.7188 85.8871 20.6325C84.2384 23.702 80.2007 25.916 74.6826 26.4695L73.404 23.5175C78.9894 22.9975 82.6233 20.7164 83.2626 18.2507H74.5816V15.2651H97.2935Z" fill="#575757"/>
<ellipse cx="28.5857" cy="28.5" rx="28.5857" ry="28.5" fill="white"/>
<path d="M43.031 26.7864C41.9515 26.0495 40.7302 25.5369 39.442 25.2801C38.1538 25.0233 36.8257 25.0276 35.5393 25.2929C34.2528 25.5581 33.0351 26.0786 31.9606 26.8225C30.8861 27.5665 29.9776 28.5181 29.2907 29.6192C28.2839 31.169 26.8409 32.3983 25.1367 33.1579C23.4325 33.9175 21.5405 34.1747 19.6904 33.8982C17.8403 33.6217 16.1117 32.8235 14.7144 31.6005C13.3171 30.3774 12.3114 28.7822 11.8191 27.0083C11.811 26.9719 11.8018 26.9446 11.7913 26.9082C11.7829 26.8678 11.7721 26.8279 11.7589 26.7887C11.3943 25.5638 11.2274 24.2903 11.2642 23.0147C11.2642 14.5049 20.1495 5.03232 32.9514 5.03232C46.058 5.03232 53.5588 14.8361 55.49 20.2832C55.4575 20.1876 55.4274 20.092 55.3938 19.9941C53.2734 13.923 49.0299 8.78763 43.418 5.50128C37.8062 2.21492 31.1898 0.990627 24.7456 2.04614C18.3014 3.10166 12.4472 6.36855 8.22406 11.2658C4.00093 16.1631 1.68269 22.3732 1.68164 28.7918C1.68164 42.1772 11.5087 53.6359 25.1389 53.6359C29.7956 53.7853 34.3818 52.4896 38.2464 49.9327C42.111 47.3758 45.0574 43.6878 46.6673 39.3923C47.6145 37.1986 47.7704 34.7527 47.1091 32.4601C46.4477 30.1674 45.0089 28.1656 43.031 26.7864Z" fill="#003764"/>
<path d="M54.7465 20.816C53.087 16.2389 50.0607 12.2786 46.0751 9.46837C42.0895 6.65813 37.3359 5.13285 32.4544 5.0979C19.8899 5.0979 11.1675 14.5344 11.1675 23.0096C11.1313 24.2803 11.2951 25.5487 11.653 26.7688C11.4916 26.1389 11.408 25.4917 11.404 24.8416C11.404 16.015 20.2731 9.89892 29.3821 9.89892C35.3062 9.89862 40.9878 12.2445 45.1771 16.4206C49.3663 20.5967 51.7202 26.2609 51.7208 32.1673C51.7234 36.7367 50.4469 41.2161 48.0349 45.1016C45.6229 48.987 42.1712 52.1242 38.0681 54.1601V54.1658C43.303 52.2746 47.8267 48.8217 51.0238 44.2768C54.221 39.7318 55.9365 34.3154 55.937 28.764C55.9448 26.07 55.5434 23.3903 54.7465 20.816Z" fill="#E4032E"/>
</svg>
