<svg width="198" height="34" viewBox="0 0 198 34" fill="none" xmlns="http://www.w3.org/2000/svg">
<path d="M198 16.9301V18.6647H181.759V16.9301H188.756V15.2942H183.316V13.5203H185.661V10.4652H183.217V8.71094H196.502V10.4652H194.058V13.5203H196.404V15.2942H190.944V16.9301H198ZM196.029 20.0641V25.7801H183.671V20.0641H196.029ZM185.839 21.7789V24.0062H193.9V21.7789H185.839ZM187.849 13.5203H191.851V10.4652H187.849V13.5203Z" fill="white"/>
<path d="M179.551 8.19922V20.2225H177.462V14.408H175.609V18.7245H173.559V8.53429H175.609V12.634H177.462V8.19922H179.551ZM171.824 9.48039V14.743H167.192V16.8126C169.262 16.7831 170.839 16.6648 172.652 16.3199L172.849 18.0347C170.721 18.4683 168.927 18.5274 166.286 18.5274H165.064V13.1465H169.715V11.2543H165.044V9.48039H171.824ZM174.544 19.7889C174.544 21.8191 176.811 23.731 180.418 24.204L179.531 25.8991C176.742 25.495 174.544 24.2336 173.46 22.4695C172.347 24.2336 170.149 25.495 167.37 25.8991L166.483 24.204C170.07 23.731 172.337 21.8191 172.357 19.7889V19.4144H174.544V19.7889Z" fill="white"/>
<path d="M161.613 8.69141V10.3471H159.168V13.0474H161.514V14.7031H148.426V13.0474H150.772V10.3471H148.328V8.69141H161.613ZM163.111 15.8265V17.5611H146.869V15.8265H163.111ZM161.08 18.7634V23.0011H150.949V24.2034H161.573V25.8394H148.801V21.4834H158.932V20.3599H148.781V18.7634H161.08ZM152.96 13.0474H156.961V10.3471H152.96V13.0474Z" fill="white"/>
<path d="M143.478 8.18094V12.5763H145.962V14.3897H143.478V18.588H141.29V8.18094H143.478ZM134.135 19.2976V20.835H141.29V19.2976H143.478V25.7823H131.967V19.2976H134.135ZM134.135 24.0478H141.29V22.5301H134.135V24.0478ZM140.009 9.83661V11.5908H129.444V9.83661H133.643V8.04297H135.831V9.83661H140.009ZM134.727 12.2018C137.309 12.2018 139.063 13.4436 139.083 15.3358C139.063 17.228 137.309 18.4697 134.727 18.4697C132.125 18.4697 130.351 17.228 130.351 15.3358C130.351 13.4436 132.125 12.2018 134.727 12.2018ZM134.727 13.8181C133.367 13.8181 132.48 14.3897 132.48 15.3358C132.48 16.3016 133.367 16.8535 134.727 16.8535C136.087 16.8535 136.993 16.3016 136.993 15.3358C136.993 14.3897 136.087 13.8181 134.727 13.8181Z" fill="white"/>
<path d="M128.224 17.4431V19.1777H111.943V17.4431H118.98V16.1226H114.033V8.65234H126.273V10.3474H116.221V11.5695H125.839V13.1857H116.221V14.4472H126.411V16.1226H121.168V17.4431H128.224ZM120.084 20.1632C124.006 20.1632 126.233 21.2078 126.253 23.0606C126.233 24.9725 124.006 25.9777 120.084 25.9777C116.102 25.9777 113.875 24.9725 113.875 23.0606C113.875 21.2078 116.102 20.1632 120.084 20.1632ZM120.084 21.7991C117.403 21.7991 116.063 22.213 116.063 23.0606C116.063 23.9278 117.403 24.3418 120.084 24.3418C122.725 24.3418 124.046 23.9278 124.065 23.0606C124.046 22.213 122.725 21.7991 120.084 21.7991Z" fill="white"/>
<path d="M99.4852 8.9681C101.791 8.94839 103.605 10.2788 104.058 12.24H107.271V8.17969H109.459V17.7392H107.271V14.0139H104.078C103.634 16.0145 101.801 17.3647 99.4852 17.3647C96.7455 17.3647 94.7744 15.6105 94.7744 13.1467C94.7744 10.7223 96.7455 8.94839 99.4852 8.9681ZM99.4852 10.8012C97.9478 10.8012 96.8637 11.7078 96.8637 13.1467C96.8637 14.5658 97.9478 15.5119 99.4852 15.5119C100.983 15.5119 102.048 14.5658 102.067 13.1467C102.048 11.7078 100.983 10.8012 99.4852 10.8012ZM99.8794 18.567V20.4592H107.271V18.567H109.459V25.781H97.7113V18.567H99.8794ZM99.8794 24.0071H107.271V22.1543H99.8794V24.0071Z" fill="white"/>
<path d="M91.98 8.17969V25.9978H89.7724V8.17969H91.98ZM86.6581 10.0719C86.6581 15.374 84.6082 19.8876 78.36 22.8442L77.2168 21.09C81.8783 18.8725 84.0465 15.8569 84.4308 11.8064H78.1235V10.0719H86.6581Z" fill="white"/>
<path d="M75.9342 22.0182V23.7921H59.6533V22.0182H66.6308V17.8988H68.799V22.0182H75.9342ZM68.8581 10.5665C68.8581 13.2668 71.5585 15.9277 75.3034 16.519L74.3573 18.3324C71.3416 17.7608 68.8778 16.0361 67.6952 13.7004C66.5126 16.0263 64.0685 17.7805 61.0725 18.3324L60.1264 16.519C63.8517 15.9277 66.5126 13.2471 66.5323 10.5665V9.26562H68.8581V10.5665Z" fill="white"/>
<path d="M58.4529 16.3621V18.136H51.3965V19.6143C54.5896 19.8311 56.4621 20.9349 56.4818 22.7876C56.4621 24.8375 54.156 25.9807 50.3124 25.9807C46.4295 25.9807 44.1036 24.8375 44.1036 22.7876C44.1036 20.9349 45.9958 19.8212 49.2284 19.6143V18.136H42.2114V16.3621H58.4529ZM50.3124 21.27C47.7107 21.2897 46.3112 21.8021 46.3309 22.7876C46.3112 23.7732 47.7107 24.3053 50.3124 24.3053C52.8551 24.3053 54.2742 23.7732 54.294 22.7876C54.2742 21.8021 52.8551 21.2897 50.3124 21.27ZM56.9943 8.9707V10.7249H51.8696C52.2145 12.1933 54.3432 13.5139 57.6842 13.8194L56.9155 15.554C53.6829 15.2287 51.2783 13.9377 50.3124 12.1244C49.3466 13.9279 46.9814 15.2287 43.7488 15.554L42.9998 13.8194C46.2718 13.5139 48.4005 12.1736 48.775 10.7249H43.6897V8.9707H56.9943Z" fill="white"/>
<circle cx="16.7455" cy="16.7455" r="16.7455" fill="white"/>
<path d="M25.2072 15.7378C24.5749 15.3048 23.8595 15.0037 23.1048 14.8528C22.3502 14.7019 21.5722 14.7044 20.8186 14.8603C20.065 15.0161 19.3517 15.3219 18.7222 15.759C18.0928 16.1961 17.5606 16.7553 17.1582 17.4022C16.5685 18.3128 15.7231 19.0351 14.7248 19.4814C13.7265 19.9277 12.6181 20.0788 11.5344 19.9164C10.4506 19.754 9.43795 19.285 8.61945 18.5663C7.80094 17.8477 7.21175 16.9104 6.9234 15.8682C6.91865 15.8468 6.91323 15.8307 6.90712 15.8093C6.90218 15.7856 6.89583 15.7622 6.88812 15.7391C6.67452 15.0194 6.57674 14.2712 6.59835 13.5217C6.59835 8.52169 11.8033 2.95597 19.3026 2.95597C26.9805 2.95597 31.3745 8.71628 32.5057 11.9168C32.4867 11.8606 32.4691 11.8044 32.4494 11.7469C31.2072 8.17978 28.7214 5.16244 25.434 3.23151C22.1466 1.30058 18.2707 0.581237 14.4957 1.20141C10.7207 1.82159 7.29132 3.74109 4.81741 6.61852C2.34351 9.49595 0.985486 13.1448 0.984871 16.9161C0.984871 24.7808 6.74154 31.5135 14.7261 31.5135C17.454 31.6013 20.1406 30.8399 22.4045 29.3376C24.6683 27.8353 26.3943 25.6684 27.3374 23.1445C27.8923 21.8556 27.9836 20.4185 27.5962 19.0714C27.2088 17.7244 26.3659 16.5482 25.2072 15.7378Z" fill="#003764"/>
<path d="M32.0705 12.2295C31.0983 9.54014 29.3255 7.21324 26.9907 5.56205C24.656 3.91087 21.8714 3.01468 19.0118 2.99414C11.6515 2.99414 6.54194 8.53867 6.54194 13.5183C6.52074 14.2649 6.61671 15.0102 6.82636 15.7271C6.73181 15.357 6.68282 14.9767 6.68049 14.5947C6.68049 9.40858 11.876 5.81503 17.212 5.81503C20.6823 5.81485 24.0106 7.19322 26.4647 9.64692C28.9188 12.1006 30.2976 15.4287 30.298 18.899C30.2995 21.5838 29.5518 24.2158 28.1388 26.4987C26.7259 28.7816 24.7038 30.6249 22.3003 31.8211V31.8245C25.3669 30.7133 28.0168 28.6845 29.8897 26.0141C31.7626 23.3436 32.7676 20.1612 32.7679 16.8994C32.7724 15.3165 32.5373 13.742 32.0705 12.2295Z" fill="#E4032E"/>
</svg>
